<svg width="17" height="17" viewBox="0 0 17 17" fill="none" xmlns="http://www.w3.org/2000/svg">
<path d="M3.54167 1.4237H5.34012C5.8299 0.865647 6.45951 0.448011 7.16423 0.213706C7.86896 -0.0205984 8.62339 -0.0631214 9.35 0.0905071C10.2349 0.270888 11.0349 0.739807 11.6245 1.4237H13.4583C14.3973 1.42482 15.2975 1.79815 15.9614 2.4618C16.6254 3.12545 16.9989 4.02523 17 4.96377V13.4599C16.9989 14.3985 16.6254 15.2982 15.9614 15.9619C15.2975 16.6255 14.3973 16.9989 13.4583 17H3.54167C2.6027 16.9989 1.70252 16.6255 1.03857 15.9619C0.374624 15.2982 0.00112534 14.3985 0 13.4599V4.96377C0.00112534 4.02523 0.374624 3.12545 1.03857 2.4618C1.70252 1.79815 2.6027 1.42482 3.54167 1.4237ZM8.5 1.4237C7.74855 1.4237 7.02788 1.72207 6.49653 2.25319C5.96518 2.7843 5.66667 3.50464 5.66667 4.25575C5.66667 4.44353 5.74129 4.62361 5.87413 4.75639C6.00697 4.88917 6.18714 4.96377 6.375 4.96377H7.88517L7.20233 3.94069C7.09807 3.78446 7.06017 3.59322 7.09696 3.40906C7.13376 3.2249 7.24224 3.06289 7.39854 2.95867C7.55484 2.85445 7.74616 2.81657 7.93041 2.85335C8.11465 2.89013 8.27674 2.99856 8.381 3.15479L9.58729 4.96377H10.625C10.8129 4.96377 10.993 4.88917 11.1259 4.75639C11.2587 4.62361 11.3333 4.44353 11.3333 4.25575C11.3333 3.50464 11.0348 2.7843 10.5035 2.25319C9.97212 1.72207 9.25145 1.4237 8.5 1.4237ZM1.41667 13.4599C1.41667 14.0233 1.64055 14.5635 2.03906 14.9619C2.43758 15.3602 2.97808 15.584 3.54167 15.584H13.4583C14.0219 15.584 14.5624 15.3602 14.9609 14.9619C15.3594 14.5635 15.5833 14.0233 15.5833 13.4599V4.96377C15.5833 4.40043 15.3594 3.86018 14.9609 3.46184C14.5624 3.06351 14.0219 2.83972 13.4583 2.83972H12.4716C12.6552 3.34226 12.7494 3.873 12.75 4.40798C12.7494 4.93076 12.5414 5.43197 12.1716 5.80164C11.8018 6.17131 11.3003 6.37923 10.7773 6.37979H6.22271C5.71483 6.38446 5.22505 6.19153 4.85691 5.84179C4.48877 5.49204 4.27113 5.01291 4.25 4.50568C4.24288 3.941 4.32512 3.37874 4.49367 2.83972H3.54167C2.97808 2.83972 2.43758 3.06351 2.03906 3.46184C1.64055 3.86018 1.41667 4.40043 1.41667 4.96377V13.4599Z" fill="#A400F1"/>
</svg>
