<svg width="18" height="18" viewBox="0 0 18 18" fill="none" xmlns="http://www.w3.org/2000/svg">
<path d="M0.65926 6.78979L6.348 1.09688C7.05207 0.394448 8.00575 0 9 0C9.99425 0 10.9479 0.394448 11.652 1.09688L17.3407 6.78979C17.5504 6.99825 17.7167 7.24628 17.8298 7.51951C17.943 7.79274 18.0008 8.08573 18 8.38149V15.7487C18 16.3457 17.7629 16.9184 17.341 17.3406C16.919 17.7628 16.3467 18 15.75 18H2.25001C1.65327 18 1.08097 17.7628 0.659019 17.3406C0.237062 16.9184 9.53674e-06 16.3457 9.53674e-06 15.7487V8.38149C-0.000831604 8.08573 0.0570068 7.79274 0.170172 7.51951C0.283337 7.24628 0.449579 6.99825 0.65926 6.78979ZM6.75 16.4991H11.25V13.5468C11.25 12.9497 11.0129 12.3771 10.591 11.9549C10.169 11.5327 9.59674 11.2955 9 11.2955C8.40326 11.2955 7.83097 11.5327 7.40901 11.9549C6.98705 12.3771 6.75 12.9497 6.75 13.5468V16.4991ZM1.50001 15.7487C1.50001 15.9477 1.57903 16.1386 1.71968 16.2793C1.86033 16.42 2.0511 16.4991 2.25001 16.4991H5.25V13.5468C5.25 12.5517 5.64509 11.5973 6.34835 10.8936C7.05161 10.1899 8.00544 9.79459 9 9.79459C9.99456 9.79459 10.9484 10.1899 11.6516 10.8936C12.3549 11.5973 12.75 12.5517 12.75 13.5468V16.4991H15.75C15.9489 16.4991 16.1397 16.42 16.2803 16.2793C16.421 16.1386 16.5 15.9477 16.5 15.7487V8.38149C16.4993 8.1826 16.4204 7.992 16.2802 7.85092L10.5915 2.16026C10.1687 1.73921 9.5965 1.50283 9 1.50283C8.4035 1.50283 7.83128 1.73921 7.4085 2.16026L1.71976 7.85317C1.58019 7.99369 1.50129 8.18339 1.50001 8.38149V15.7487Z" fill="#A400F1"/>
</svg>
