<svg width="16" height="15" viewBox="0 0 16 15" fill="none" xmlns="http://www.w3.org/2000/svg">
<path d="M11.5455 0H13.4545C14.1296 0 14.7771 0.268181 15.2545 0.745546C15.7318 1.22291 16 1.87036 16 2.54545V4.45455C16 5.12964 15.7318 5.77709 15.2545 6.25445C14.7771 6.73182 14.1296 7 13.4545 7H11.5455C10.8704 7 10.2229 6.73182 9.74555 6.25445C9.26818 5.77709 9 5.12964 9 4.45455V2.54545C9 1.87036 9.26818 1.22291 9.74555 0.745546C10.2229 0.268181 10.8704 0 11.5455 0V0ZM10.2727 4.45455C10.2727 4.79209 10.4068 5.11582 10.6455 5.3545C10.8842 5.59318 11.2079 5.72727 11.5455 5.72727H13.4545C13.7921 5.72727 14.1158 5.59318 14.3545 5.3545C14.5932 5.11582 14.7273 4.79209 14.7273 4.45455V2.54545C14.7273 2.20791 14.5932 1.88418 14.3545 1.6455C14.1158 1.40682 13.7921 1.27273 13.4545 1.27273H11.5455C11.2079 1.27273 10.8842 1.40682 10.6455 1.6455C10.4068 1.88418 10.2727 2.20791 10.2727 2.54545V4.45455Z" fill="#A400F1"/>
<path d="M2.54545 0H4.45455C5.12964 0 5.77709 0.268181 6.25445 0.745546C6.73182 1.22291 7 1.87036 7 2.54545V4.45455C7 5.12964 6.73182 5.77709 6.25445 6.25445C5.77709 6.73182 5.12964 7 4.45455 7H2.54545C1.87036 7 1.22291 6.73182 0.745547 6.25445C0.268182 5.77709 1.19209e-07 5.12964 1.19209e-07 4.45455V2.54545C1.19209e-07 1.87036 0.268182 1.22291 0.745547 0.745546C1.22291 0.268181 1.87036 0 2.54545 0V0ZM1.27273 4.45455C1.27273 4.79209 1.40682 5.11582 1.6455 5.3545C1.88418 5.59318 2.20791 5.72727 2.54545 5.72727H4.45455C4.79209 5.72727 5.11582 5.59318 5.3545 5.3545C5.59318 5.11582 5.72727 4.79209 5.72727 4.45455V2.54545C5.72727 2.20791 5.59318 1.88418 5.3545 1.6455C5.11582 1.40682 4.79209 1.27273 4.45455 1.27273H2.54545C2.20791 1.27273 1.88418 1.40682 1.6455 1.6455C1.40682 1.88418 1.27273 2.20791 1.27273 2.54545V4.45455Z" fill="#A400F1"/>
<path d="M11.5455 8H13.4545C14.1296 8 14.7771 8.26818 15.2545 8.74555C15.7318 9.22291 16 9.87036 16 10.5455V12.4545C16 13.1296 15.7318 13.7771 15.2545 14.2545C14.7771 14.7318 14.1296 15 13.4545 15H11.5455C10.8704 15 10.2229 14.7318 9.74555 14.2545C9.26818 13.7771 9 13.1296 9 12.4545V10.5455C9 9.87036 9.26818 9.22291 9.74555 8.74555C10.2229 8.26818 10.8704 8 11.5455 8V8ZM10.2727 12.4545C10.2727 12.7921 10.4068 13.1158 10.6455 13.3545C10.8842 13.5932 11.2079 13.7273 11.5455 13.7273H13.4545C13.7921 13.7273 14.1158 13.5932 14.3545 13.3545C14.5932 13.1158 14.7273 12.7921 14.7273 12.4545V10.5455C14.7273 10.2079 14.5932 9.88418 14.3545 9.6455C14.1158 9.40682 13.7921 9.27273 13.4545 9.27273H11.5455C11.2079 9.27273 10.8842 9.40682 10.6455 9.6455C10.4068 9.88418 10.2727 10.2079 10.2727 10.5455V12.4545Z" fill="#A400F1"/>
<path d="M2.54545 8H4.45455C5.12964 8 5.77709 8.26818 6.25445 8.74555C6.73182 9.22291 7 9.87036 7 10.5455V12.4545C7 13.1296 6.73182 13.7771 6.25445 14.2545C5.77709 14.7318 5.12964 15 4.45455 15H2.54545C1.87036 15 1.22291 14.7318 0.745547 14.2545C0.268182 13.7771 1.19209e-07 13.1296 1.19209e-07 12.4545V10.5455C1.19209e-07 9.87036 0.268182 9.22291 0.745547 8.74555C1.22291 8.26818 1.87036 8 2.54545 8V8ZM1.27273 12.4545C1.27273 12.7921 1.40682 13.1158 1.6455 13.3545C1.88418 13.5932 2.20791 13.7273 2.54545 13.7273H4.45455C4.79209 13.7273 5.11582 13.5932 5.3545 13.3545C5.59318 13.1158 5.72727 12.7921 5.72727 12.4545V10.5455C5.72727 10.2079 5.59318 9.88418 5.3545 9.6455C5.11582 9.40682 4.79209 9.27273 4.45455 9.27273H2.54545C2.20791 9.27273 1.88418 9.40682 1.6455 9.6455C1.40682 9.88418 1.27273 10.2079 1.27273 10.5455V12.4545Z" fill="#A400F1"/>
</svg>
