<svg width="15" height="15" viewBox="0 0 15 15" fill="none" xmlns="http://www.w3.org/2000/svg">
<path d="M11.875 15H3.125C2.2962 15 1.50134 14.6708 0.915291 14.0847C0.32924 13.4987 0 12.7038 0 11.875L0 3.125C0 2.71462 0.0808305 2.30826 0.237876 1.92911C0.394922 1.54997 0.625108 1.20547 0.915291 0.915291C1.50134 0.32924 2.2962 0 3.125 0H11.875C12.2854 0 12.6917 0.0808302 13.0709 0.237876C13.45 0.394922 13.7945 0.625108 14.0847 0.915291C14.3749 1.20547 14.6051 1.54997 14.7621 1.92911C14.9192 2.30826 15 2.71462 15 3.125V11.875C15 12.2854 14.9192 12.6917 14.7621 13.0709C14.6051 13.45 14.3749 13.7945 14.0847 14.0847C13.7945 14.3749 13.45 14.6051 13.0709 14.7621C12.6917 14.9192 12.2854 15 11.875 15V15ZM13.75 3.125C13.75 2.62772 13.5525 2.15081 13.2008 1.79917C12.8492 1.44754 12.3723 1.25 11.875 1.25H3.125C2.62772 1.25 2.15081 1.44754 1.79917 1.79917C1.44754 2.15081 1.25 2.62772 1.25 3.125V11.875C1.25 12.3723 1.44754 12.8492 1.79917 13.2008C2.15081 13.5525 2.62772 13.75 3.125 13.75H11.875C12.3723 13.75 12.8492 13.5525 13.2008 13.2008C13.5525 12.8492 13.75 12.3723 13.75 11.875V3.125Z" fill="#A400F1"/>
<path d="M7.5 7C7.77614 7 8 7.22386 8 7.5C8 7.77614 7.77614 8 7.5 8C7.22386 8 7 7.77614 7 7.5C7 7.22386 7.22386 7 7.5 7Z" fill="#A400F1"/>
<path d="M10.5 7C10.7761 7 11 7.22386 11 7.5C11 7.77614 10.7761 8 10.5 8C10.2239 8 10 7.77614 10 7.5C10 7.22386 10.2239 7 10.5 7Z" fill="#A400F1"/>
<path d="M11.5 7C11.7761 7 12 7.22386 12 7.5C12 7.77614 11.7761 8 11.5 8C11.2239 8 11 7.77614 11 7.5C11 7.22386 11.2239 7 11.5 7Z" fill="#A400F1"/>
</svg>
