<svg width="7" height="7" viewBox="0 0 7 7" fill="none" xmlns="http://www.w3.org/2000/svg">
<path d="M2.54545 0H4.45455C5.12964 0 5.77709 0.268181 6.25445 0.745546C6.73182 1.22291 7 1.87036 7 2.54545L7 4.45455C7 5.12964 6.73182 5.77709 6.25445 6.25445C5.77709 6.73182 5.12964 7 4.45455 7H2.54545C1.87036 7 1.22291 6.73182 0.745546 6.25445C0.268181 5.77709 0 5.12964 0 4.45455V2.54545C0 1.87036 0.268181 1.22291 0.745546 0.745546C1.22291 0.268181 1.87036 0 2.54545 0V0ZM1.27273 4.45455C1.27273 4.79209 1.40682 5.11582 1.6455 5.3545C1.88418 5.59318 2.20791 5.72727 2.54545 5.72727H4.45455C4.79209 5.72727 5.11582 5.59318 5.3545 5.3545C5.59318 5.11582 5.72727 4.79209 5.72727 4.45455V2.54545C5.72727 2.20791 5.59318 1.88418 5.3545 1.6455C5.11582 1.40682 4.79209 1.27273 4.45455 1.27273H2.54545C2.20791 1.27273 1.88418 1.40682 1.6455 1.6455C1.40682 1.88418 1.27273 2.20791 1.27273 2.54545V4.45455Z" fill="#A400F1"/>
</svg>
